<svg xmlns="http://www.w3.org/2000/svg" width="512" height="512" viewBox="0 0 512 512">
  <rect width="512" height="512" fill="#0a0a0a"/>
  <g transform="translate(86,86) scale(14.167)" fill="none" stroke="#a855f7" stroke-width="0.106" stroke-linecap="round" stroke-linejoin="round">
    <path d="M12 21C12 21 3 14.5 3 8.5C3 5.5 5.5 3 8.5 3C10.4 3 12 4.2 12 4.2C12 4.2 13.6 3 15.5 3C18.5 3 21 5.5 21 8.5C21 14.5 12 21 12 21Z"/>
    <rect x="9" y="9" width="6" height="6" rx="0.5"/>
    <line x1="11" y1="9" x2="11" y2="7"/>
    <line x1="13" y1="9" x2="13" y2="7"/>
    <line x1="11" y1="15" x2="11" y2="17"/>
    <line x1="13" y1="15" x2="13" y2="17"/>
    <line x1="9" y1="11" x2="7" y2="11"/>
    <line x1="9" y1="13" x2="7" y2="13"/>
    <line x1="15" y1="11" x2="17" y2="11"/>
    <line x1="15" y1="13" x2="17" y2="13"/>
  </g>
</svg>
